<?xml version="1.0" standalone="no"?>
<!DOCTYPE svg PUBLIC "-//W3C//DTD SVG 20010904//EN"
 "http://www.w3.org/TR/2001/REC-SVG-20010904/DTD/svg10.dtd">
<svg version="1.0" xmlns="http://www.w3.org/2000/svg"
 width="300.000000pt" height="300.000000pt" viewBox="0 0 300.000000 300.000000"
 preserveAspectRatio="xMidYMid meet">
<metadata>
Created by potrace 1.14, written by Peter Selinger 2001-2017
</metadata>
<g transform="translate(0.000000,300.000000) scale(0.100000,-0.100000)"
fill="#000000" stroke="none">
<path d="M191 2442 c-7 -2 -11 -65 -11 -183 l0 -179 190 0 190 0 0 -760 0
-760 185 0 185 0 0 760 0 760 195 0 195 0 0 -760 0 -760 185 0 185 0 0 760 0
760 190 0 190 0 0 -760 0 -760 375 0 375 0 0 185 0 185 -190 0 -190 0 0 575 0
575 190 0 190 0 0 186 0 186 -1309 -3 c-721 -2 -1315 -5 -1320 -7z"/>
</g>
</svg>
